<svg width="20" height="20" viewBox="0 0 20 20" fill="none" xmlns="http://www.w3.org/2000/svg">
    <g clip-path="url(#clip0_41_8)">
        <path d="M8.83489 0.908627C9.13864 -0.303873 10.8599 -0.303873 11.1649 0.908627L11.2536 1.26613C11.3056 1.47389 11.4121 1.66396 11.5623 1.81664C11.7125 1.96931 11.9008 2.07901 12.1077 2.13437C12.3145 2.18972 12.5324 2.1887 12.7388 2.13143C12.9451 2.07415 13.1324 1.96269 13.2811 1.80863L13.5374 1.54488C14.4061 0.646127 15.8974 1.50738 15.5536 2.70863L15.4536 3.06363C15.3948 3.26944 15.392 3.48725 15.4457 3.69448C15.4994 3.90171 15.6075 4.09081 15.7588 4.24218C15.9102 4.39355 16.0993 4.50167 16.3065 4.55533C16.5138 4.609 16.7316 4.60625 16.9374 4.54738L17.2911 4.44613C18.4911 4.10238 19.3536 5.59363 18.4549 6.46238L18.1911 6.71863C18.0371 6.86737 17.9256 7.05463 17.8683 7.26098C17.8111 7.46733 17.81 7.68524 17.8654 7.89211C17.9208 8.09899 18.0305 8.28728 18.1831 8.43745C18.3358 8.58762 18.5259 8.6942 18.7336 8.74613L19.0911 8.83488C20.3036 9.13863 20.3036 10.8599 19.0911 11.1649L18.7336 11.2536C18.5259 11.3056 18.3358 11.4121 18.1831 11.5623C18.0305 11.7125 17.9208 11.9008 17.8654 12.1076C17.81 12.3145 17.8111 12.5324 17.8683 12.7388C17.9256 12.9451 18.0371 13.1324 18.1911 13.2811L18.4549 13.5374C19.3536 14.4061 18.4924 15.8974 17.2911 15.5536L16.9361 15.4536C16.7303 15.3948 16.5125 15.392 16.3053 15.4457C16.0981 15.4993 15.909 15.6075 15.7576 15.7588C15.6062 15.9102 15.4981 16.0993 15.4444 16.3065C15.3908 16.5138 15.3935 16.7316 15.4524 16.9374L15.5536 17.2911C15.8974 18.4911 14.4061 19.3536 13.5374 18.4549L13.2811 18.1911C13.1324 18.0371 12.9451 17.9256 12.7388 17.8683C12.5324 17.811 12.3145 17.81 12.1077 17.8654C11.9008 17.9207 11.7125 18.0304 11.5623 18.1831C11.4121 18.3358 11.3056 18.5259 11.2536 18.7336L11.1649 19.0911C10.8611 20.3036 9.13989 20.3036 8.83489 19.0911L8.74614 18.7336C8.69421 18.5259 8.58764 18.3358 8.43746 18.1831C8.28729 18.0304 8.099 17.9207 7.89213 17.8654C7.68526 17.81 7.46734 17.811 7.26099 17.8683C7.05464 17.9256 6.86738 18.0371 6.71864 18.1911L6.46239 18.4549C5.59364 19.3536 4.10239 18.4924 4.44614 17.2911L4.54614 16.9361C4.6049 16.7304 4.60762 16.5128 4.554 16.3057C4.50038 16.0986 4.39239 15.9096 4.24119 15.7583C4.09 15.607 3.9011 15.4988 3.69406 15.4451C3.48703 15.3913 3.26937 15.3938 3.06364 15.4524L2.70864 15.5536C1.50864 15.8974 0.646143 14.4061 1.54489 13.5374L1.80864 13.2811C1.96271 13.1324 2.07416 12.9451 2.13144 12.7388C2.18872 12.5324 2.18974 12.3145 2.13438 12.1076C2.07903 11.9008 1.96932 11.7125 1.81665 11.5623C1.66398 11.4121 1.4739 11.3056 1.26614 11.2536L0.908643 11.1649C-0.303857 10.8611 -0.303857 9.13988 0.908643 8.83488L1.26614 8.74613C1.4739 8.6942 1.66398 8.58762 1.81665 8.43745C1.96932 8.28728 2.07903 8.09899 2.13438 7.89211C2.18974 7.68524 2.18872 7.46733 2.13144 7.26098C2.07416 7.05463 1.96271 6.86737 1.80864 6.71863L1.54489 6.46238C0.646143 5.59363 1.50739 4.10238 2.70864 4.44613L3.06364 4.54613C3.26932 4.60489 3.48698 4.6076 3.69406 4.55398C3.90114 4.50037 4.09013 4.39237 4.24145 4.24118C4.39277 4.08998 4.50093 3.90109 4.55472 3.69405C4.60851 3.48701 4.60598 3.26936 4.54739 3.06363L4.44614 2.70863C4.10239 1.50863 5.59364 0.646127 6.46239 1.54488L6.71864 1.80863C6.86738 1.96269 7.05464 2.07415 7.26099 2.13143C7.46734 2.1887 7.68526 2.18972 7.89213 2.13437C8.099 2.07901 8.28729 1.96931 8.43746 1.81664C8.58764 1.66396 8.69421 1.47389 8.74614 1.26613L8.83489 0.908627ZM16.2161 10.6249H10.3124L6.76989 15.3486C7.67224 15.8936 8.69782 16.2015 9.75115 16.2434C10.8045 16.2854 11.8513 16.0602 12.7941 15.5887C13.737 15.1172 14.5452 14.4148 15.1435 13.5469C15.7419 12.679 16.1109 11.6738 16.2161 10.6249ZM16.2161 9.37488C16.1109 8.32598 15.7419 7.32079 15.1435 6.45288C14.5452 5.58497 13.737 4.88258 12.7941 4.41109C11.8513 3.9396 10.8045 3.71436 9.75115 3.75633C8.69782 3.7983 7.67224 4.10612 6.76989 4.65113L10.3124 9.37613L16.2161 9.37488ZM6.30989 4.95863C6.27239 4.98488 6.23739 5.01238 6.20114 5.03988L6.30989 4.95863ZM5.77114 5.40238C5.1341 5.98671 4.62563 6.69723 4.27808 7.48874C3.93053 8.28025 3.75151 9.13543 3.75239 9.99988C3.75239 11.8186 4.52989 13.4561 5.77114 14.5974L9.21864 9.99988L5.77114 5.40238Z" fill="#C1C3C7"/>
    </g>
    <defs>
        <clipPath id="clip0_41_8">
            <rect width="20" height="20" fill="white"/>
        </clipPath>
    </defs>
</svg>
