<svg width="18" height="18" viewBox="0 0 18 18" fill="none" xmlns="http://www.w3.org/2000/svg">
    <path d="M7.125 17.125V12.7438C7.125 12.4375 7.4375 12.125 7.75 12.125H10.25C10.5625 12.125 10.875 12.4375 10.875 12.75V17.125C10.875 17.2908 10.9408 17.4498 11.0581 17.567C11.1753 17.6842 11.3342 17.75 11.5 17.75H16.5C16.6658 17.75 16.8247 17.6842 16.9419 17.567C17.0592 17.4498 17.125 17.2908 17.125 17.125V8.37502C17.1251 8.29289 17.1091 8.21153 17.0778 8.1356C17.0465 8.05968 17.0005 7.99067 16.9425 7.93252L15.25 6.24127V2.12502C15.25 1.95926 15.1842 1.80029 15.0669 1.68308C14.9497 1.56587 14.7908 1.50002 14.625 1.50002H13.375C13.2092 1.50002 13.0503 1.56587 12.9331 1.68308C12.8159 1.80029 12.75 1.95926 12.75 2.12502V3.74127L9.4425 0.432519C9.38445 0.374315 9.31547 0.328136 9.23954 0.296628C9.16361 0.26512 9.08221 0.248901 9 0.248901C8.91779 0.248901 8.83639 0.26512 8.76046 0.296628C8.68453 0.328136 8.61556 0.374315 8.5575 0.432519L1.0575 7.93252C0.999499 7.99067 0.953526 8.05968 0.922211 8.1356C0.890897 8.21153 0.874854 8.29289 0.875001 8.37502V17.125C0.875001 17.2908 0.940849 17.4498 1.05806 17.567C1.17527 17.6842 1.33424 17.75 1.5 17.75H6.5C6.66576 17.75 6.82473 17.6842 6.94194 17.567C7.05915 17.4498 7.125 17.2908 7.125 17.125Z" fill="white"/>
</svg>
