<svg width="18" height="18" viewBox="0 0 18 18" fill="none" xmlns="http://www.w3.org/2000/svg">
    <path d="M7.125 17.125V12.7438C7.125 12.4375 7.4375 12.125 7.75 12.125H10.25C10.5625 12.125 10.875 12.4375 10.875 12.75V17.125C10.875 17.2908 10.9408 17.4497 11.0581 17.5669C11.1753 17.6842 11.3342 17.75 11.5 17.75H16.5C16.6658 17.75 16.8247 17.6842 16.9419 17.5669C17.0592 17.4497 17.125 17.2908 17.125 17.125V8.375C17.1251 8.29287 17.1091 8.21152 17.0778 8.13559C17.0465 8.05966 17.0005 7.99065 16.9425 7.9325L15.25 6.24125V2.125C15.25 1.95924 15.1842 1.80027 15.0669 1.68306C14.9497 1.56585 14.7908 1.5 14.625 1.5H13.375C13.2092 1.5 13.0503 1.56585 12.9331 1.68306C12.8159 1.80027 12.75 1.95924 12.75 2.125V3.74125L9.4425 0.432503C9.38445 0.374299 9.31547 0.328121 9.23954 0.296613C9.16361 0.265105 9.08221 0.248886 9 0.248886C8.91779 0.248886 8.83639 0.265105 8.76046 0.296613C8.68453 0.328121 8.61556 0.374299 8.5575 0.432503L1.0575 7.9325C0.999499 7.99065 0.953526 8.05966 0.922211 8.13559C0.890897 8.21152 0.874854 8.29287 0.875001 8.375V17.125C0.875001 17.2908 0.940849 17.4497 1.05806 17.5669C1.17527 17.6842 1.33424 17.75 1.5 17.75H6.5C6.66576 17.75 6.82473 17.6842 6.94194 17.5669C7.05915 17.4497 7.125 17.2908 7.125 17.125Z" fill="#232329"/>
</svg>
