<svg width="19" height="20" viewBox="0 0 19 20" fill="none" xmlns="http://www.w3.org/2000/svg">
    <path d="M7.5 0.347675C7.62202 0.49594 7.69677 0.67739 7.71459 0.868578C7.73242 1.05977 7.6925 1.25191 7.6 1.42017C6.87732 2.74702 6.49992 4.23429 6.5025 5.74518C6.5025 10.7714 10.6 14.8414 15.65 14.8414C16.3088 14.8414 16.95 14.7727 17.5663 14.6414C17.7552 14.6005 17.9519 14.6162 18.132 14.6864C18.3121 14.7567 18.4675 14.8784 18.5788 15.0364C18.6962 15.2007 18.7561 15.3993 18.7491 15.6011C18.7421 15.803 18.6686 15.9969 18.54 16.1527C17.5596 17.357 16.3228 18.3273 14.9198 18.9929C13.5168 19.6585 11.9829 20.0026 10.43 20.0002C4.6675 20.0002 0 15.3577 0 9.63768C0 5.33268 2.6425 1.64017 6.405 0.0751748C6.59242 -0.00403542 6.80049 -0.020293 6.99794 0.0288443C7.19539 0.0779816 7.37156 0.189861 7.5 0.347675Z" fill="white"/>
</svg>
