<svg width="21" height="20" viewBox="0 0 21 20" fill="none" xmlns="http://www.w3.org/2000/svg">
    <path fill-rule="evenodd" clip-rule="evenodd" d="M20.5 10C20.5 12.6522 19.4464 15.1957 17.5711 17.0711C15.6957 18.9464 13.1522 20 10.5 20C7.84783 20 5.3043 18.9464 3.42893 17.0711C1.55357 15.1957 0.5 12.6522 0.5 10C0.5 7.34783 1.55357 4.8043 3.42893 2.92893C5.3043 1.05357 7.84783 0 10.5 0C13.1522 0 15.6957 1.05357 17.5711 2.92893C19.4464 4.8043 20.5 7.34783 20.5 10ZM10.5 4.27083V5.95062C10.5 6.00505 10.5155 6.05835 10.5447 6.10428C10.5739 6.1502 10.6156 6.18685 10.6649 6.20994C10.7142 6.23302 10.7691 6.24158 10.8231 6.23462C10.877 6.22766 10.9279 6.20546 10.9697 6.17062L13.6739 3.91791C13.8114 3.80333 13.8114 3.5925 13.6739 3.47791L10.9697 1.22521C10.9279 1.19037 10.877 1.16817 10.8231 1.16121C10.7691 1.15424 10.7142 1.16281 10.6649 1.18589C10.6156 1.20897 10.5739 1.24563 10.5447 1.29155C10.5155 1.33748 10.5 1.39077 10.5 1.44521V3.125C9.01401 3.12525 7.56815 3.60693 6.37894 4.49788C5.18973 5.38883 4.3212 6.6411 3.90343 8.06711C3.48566 9.49311 3.54115 11.0161 4.06158 12.4079C4.58202 13.7997 5.53939 14.9855 6.79028 15.7875C8.04117 16.5896 9.51825 16.9647 11.0003 16.8569C12.4823 16.749 13.8895 16.1638 15.011 15.1891C16.1326 14.2143 16.9081 12.9024 17.2215 11.4499C17.5349 9.9974 17.3692 8.48244 16.7493 7.13198C16.6822 7.00017 16.5667 6.89944 16.427 6.85086C16.2872 6.80229 16.1341 6.80964 15.9997 6.87137C15.8653 6.93311 15.76 7.04444 15.7058 7.18208C15.6516 7.31971 15.6527 7.47297 15.7089 7.60979C16.2255 8.73512 16.3636 9.99753 16.1025 11.2079C15.8415 12.4183 15.1953 13.5116 14.2608 14.3239C13.3262 15.1363 12.1537 15.624 10.9187 15.714C9.68375 15.804 8.45286 15.4915 7.4104 14.8233C6.36794 14.1551 5.57003 13.1671 5.13618 12.0074C4.70232 10.8476 4.65588 9.57854 5.00381 8.39019C5.35173 7.20184 6.0753 6.15819 7.06613 5.41556C8.05695 4.67294 9.26171 4.27131 10.5 4.27083Z" fill="white"/>
</svg>
