<svg width="21" height="20" viewBox="0 0 21 20" fill="none" xmlns="http://www.w3.org/2000/svg">
    <path d="M5.5 0.625C5.5 0.45924 5.43415 0.300269 5.31694 0.183058C5.19973 0.065848 5.04076 0 4.875 0C4.70924 0 4.55027 0.065848 4.43306 0.183058C4.31585 0.300269 4.25 0.45924 4.25 0.625V1.25H3C2.33696 1.25 1.70107 1.51339 1.23223 1.98223C0.763392 2.45107 0.5 3.08696 0.5 3.75L0.5 5H20.5V3.75C20.5 3.08696 20.2366 2.45107 19.7678 1.98223C19.2989 1.51339 18.663 1.25 18 1.25H16.75V0.625C16.75 0.45924 16.6842 0.300269 16.5669 0.183058C16.4497 0.065848 16.2908 0 16.125 0C15.9592 0 15.8003 0.065848 15.6831 0.183058C15.5658 0.300269 15.5 0.45924 15.5 0.625V1.25H5.5V0.625ZM20.5 17.5V6.25H0.5V17.5C0.5 18.163 0.763392 18.7989 1.23223 19.2678C1.70107 19.7366 2.33696 20 3 20H18C18.663 20 19.2989 19.7366 19.7678 19.2678C20.2366 18.7989 20.5 18.163 20.5 17.5ZM12.375 8.75H13.625C13.7908 8.75 13.9497 8.81585 14.0669 8.93306C14.1842 9.05027 14.25 9.20924 14.25 9.375V10.625C14.25 10.7908 14.1842 10.9497 14.0669 11.0669C13.9497 11.1842 13.7908 11.25 13.625 11.25H12.375C12.2092 11.25 12.0503 11.1842 11.9331 11.0669C11.8158 10.9497 11.75 10.7908 11.75 10.625V9.375C11.75 9.20924 11.8158 9.05027 11.9331 8.93306C12.0503 8.81585 12.2092 8.75 12.375 8.75ZM16.125 8.75H17.375C17.5408 8.75 17.6997 8.81585 17.8169 8.93306C17.9342 9.05027 18 9.20924 18 9.375V10.625C18 10.7908 17.9342 10.9497 17.8169 11.0669C17.6997 11.1842 17.5408 11.25 17.375 11.25H16.125C15.9592 11.25 15.8003 11.1842 15.6831 11.0669C15.5658 10.9497 15.5 10.7908 15.5 10.625V9.375C15.5 9.20924 15.5658 9.05027 15.6831 8.93306C15.8003 8.81585 15.9592 8.75 16.125 8.75ZM3 13.125C3 12.9592 3.06585 12.8003 3.18306 12.6831C3.30027 12.5658 3.45924 12.5 3.625 12.5H4.875C5.04076 12.5 5.19973 12.5658 5.31694 12.6831C5.43415 12.8003 5.5 12.9592 5.5 13.125V14.375C5.5 14.5408 5.43415 14.6997 5.31694 14.8169C5.19973 14.9342 5.04076 15 4.875 15H3.625C3.45924 15 3.30027 14.9342 3.18306 14.8169C3.06585 14.6997 3 14.5408 3 14.375V13.125ZM7.375 12.5H8.625C8.79076 12.5 8.94973 12.5658 9.06694 12.6831C9.18415 12.8003 9.25 12.9592 9.25 13.125V14.375C9.25 14.5408 9.18415 14.6997 9.06694 14.8169C8.94973 14.9342 8.79076 15 8.625 15H7.375C7.20924 15 7.05027 14.9342 6.93306 14.8169C6.81585 14.6997 6.75 14.5408 6.75 14.375V13.125C6.75 12.9592 6.81585 12.8003 6.93306 12.6831C7.05027 12.5658 7.20924 12.5 7.375 12.5Z" fill="#232329"/>
</svg>
