<svg width="18" height="18" viewBox="0 0 18 18" fill="none" xmlns="http://www.w3.org/2000/svg">
    <path d="M3.375 1.5C3.87228 1.5 4.3492 1.69755 4.70083 2.04918C5.05246 2.40081 5.25 2.87772 5.25 3.375V5.25H3.375C3.12877 5.25 2.88496 5.2015 2.65747 5.10728C2.42998 5.01305 2.22329 4.87494 2.04918 4.70083C1.87507 4.52672 1.73695 4.32002 1.64273 4.09253C1.5485 3.86505 1.5 3.62123 1.5 3.375C1.5 3.12877 1.5485 2.88496 1.64273 2.65747C1.73695 2.42998 1.87507 2.22329 2.04918 2.04918C2.22329 1.87507 2.42998 1.73695 2.65747 1.64273C2.88496 1.5485 3.12877 1.5 3.375 1.5ZM6.5 5.25V3.375C6.5 2.75693 6.31672 2.15275 5.97334 1.63884C5.62996 1.12494 5.14191 0.724402 4.57089 0.487878C3.99987 0.251354 3.37154 0.189469 2.76534 0.310047C2.15915 0.430626 1.60233 0.728254 1.16529 1.16529C0.728254 1.60233 0.430626 2.15915 0.310047 2.76534C0.189469 3.37154 0.251354 3.99987 0.487878 4.57089C0.724402 5.14191 1.12494 5.62996 1.63884 5.97334C2.15275 6.31672 2.75693 6.5 3.375 6.5H5.25V11.5H3.375C2.75693 11.5 2.15275 11.6833 1.63884 12.0267C1.12494 12.37 0.724402 12.8581 0.487878 13.4291C0.251354 14.0001 0.189469 14.6285 0.310047 15.2347C0.430626 15.8408 0.728254 16.3977 1.16529 16.8347C1.60233 17.2717 2.15915 17.5694 2.76534 17.69C3.37154 17.8105 3.99987 17.7486 4.57089 17.5121C5.14191 17.2756 5.62996 16.8751 5.97334 16.3612C6.31672 15.8473 6.5 15.2431 6.5 14.625V12.75H11.5V14.625C11.5 15.2431 11.6833 15.8473 12.0267 16.3612C12.37 16.8751 12.8581 17.2756 13.4291 17.5121C14.0001 17.7486 14.6285 17.8105 15.2347 17.69C15.8408 17.5694 16.3977 17.2717 16.8347 16.8347C17.2717 16.3977 17.5694 15.8408 17.69 15.2347C17.8105 14.6285 17.7486 14.0001 17.5121 13.4291C17.2756 12.8581 16.8751 12.37 16.3612 12.0267C15.8473 11.6833 15.2431 11.5 14.625 11.5H12.75V6.5H14.625C15.2431 6.5 15.8473 6.31672 16.3612 5.97334C16.8751 5.62996 17.2756 5.14191 17.5121 4.57089C17.7486 3.99987 17.8105 3.37154 17.69 2.76534C17.5694 2.15915 17.2717 1.60233 16.8347 1.16529C16.3977 0.728254 15.8408 0.430626 15.2347 0.310047C14.6285 0.189469 14.0001 0.251354 13.4291 0.487878C12.8581 0.724402 12.37 1.12494 12.0267 1.63884C11.6833 2.15275 11.5 2.75693 11.5 3.375V5.25H6.5ZM11.5 6.5V11.5H6.5V6.5H11.5ZM12.75 5.25V3.375C12.75 3.00416 12.86 2.64165 13.066 2.33331C13.272 2.02496 13.5649 1.78464 13.9075 1.64273C14.2501 1.50081 14.6271 1.46368 14.9908 1.53603C15.3545 1.60838 15.6886 1.78695 15.9508 2.04918C16.213 2.3114 16.3916 2.64549 16.464 3.00921C16.5363 3.37292 16.4992 3.74992 16.3573 4.09253C16.2154 4.43514 15.975 4.72798 15.6667 4.93401C15.3584 5.14003 14.9958 5.25 14.625 5.25H12.75ZM12.75 12.75H14.625C14.9958 12.75 15.3584 12.86 15.6667 13.066C15.975 13.272 16.2154 13.5649 16.3573 13.9075C16.4992 14.2501 16.5363 14.6271 16.464 14.9908C16.3916 15.3545 16.213 15.6886 15.9508 15.9508C15.6886 16.213 15.3545 16.3916 14.9908 16.464C14.6271 16.5363 14.2501 16.4992 13.9075 16.3573C13.5649 16.2154 13.272 15.975 13.066 15.6667C12.86 15.3584 12.75 14.9958 12.75 14.625V12.75ZM5.25 12.75V14.625C5.25 14.9958 5.14003 15.3584 4.93401 15.6667C4.72798 15.975 4.43514 16.2154 4.09253 16.3573C3.74992 16.4992 3.37292 16.5363 3.00921 16.464C2.64549 16.3916 2.3114 16.213 2.04918 15.9508C1.78695 15.6886 1.60838 15.3545 1.53603 14.9908C1.46368 14.6271 1.50081 14.2501 1.64273 13.9075C1.78464 13.5649 2.02496 13.272 2.33331 13.066C2.64165 12.86 3.00416 12.75 3.375 12.75H5.25Z" fill="#232329"/>
</svg>
