<svg width="16" height="20" viewBox="0 0 16 20" fill="none" xmlns="http://www.w3.org/2000/svg">
    <path d="M13 0H3C2.33696 0 1.70107 0.263392 1.23223 0.732233C0.763392 1.20107 0.5 1.83696 0.5 2.5V17.5C0.5 18.163 0.763392 18.7989 1.23223 19.2678C1.70107 19.7366 2.33696 20 3 20H13C13.663 20 14.2989 19.7366 14.7678 19.2678C15.2366 18.7989 15.5 18.163 15.5 17.5V2.5C15.5 1.83696 15.2366 1.20107 14.7678 0.732233C14.2989 0.263392 13.663 0 13 0ZM6.75 5.3125C6.75 5.43561 6.72575 5.55752 6.67864 5.67127C6.63152 5.78501 6.56247 5.88836 6.47541 5.97541C6.38836 6.06247 6.28501 6.13152 6.17127 6.17864C6.05752 6.22575 5.93561 6.25 5.8125 6.25C5.68939 6.25 5.56748 6.22575 5.45373 6.17864C5.33999 6.13152 5.23664 6.06247 5.14959 5.97541C5.06253 5.88836 4.99348 5.78501 4.94636 5.67127C4.89925 5.55752 4.875 5.43561 4.875 5.3125C4.875 5.06386 4.97377 4.8254 5.14959 4.64959C5.3254 4.47377 5.56386 4.375 5.8125 4.375C6.06114 4.375 6.2996 4.47377 6.47541 4.64959C6.65123 4.8254 6.75 5.06386 6.75 5.3125ZM5.67375 7.24L7.33625 8.3475L9.65375 6.02875C9.70014 5.98222 9.76002 5.9515 9.82487 5.94096C9.88973 5.93041 9.95625 5.94057 10.015 5.97L12.375 7.1875V9.375C12.375 9.54076 12.3092 9.69973 12.1919 9.81694C12.0747 9.93415 11.9158 10 11.75 10H4.25C4.08424 10 3.92527 9.93415 3.80806 9.81694C3.69085 9.69973 3.625 9.54076 3.625 9.375V8.75C3.625 8.75 5.55 7.1575 5.67375 7.24ZM4.25 11.25H11.75C11.9158 11.25 12.0747 11.3158 12.1919 11.4331C12.3092 11.5503 12.375 11.7092 12.375 11.875C12.375 12.0408 12.3092 12.1997 12.1919 12.3169C12.0747 12.4342 11.9158 12.5 11.75 12.5H4.25C4.08424 12.5 3.92527 12.4342 3.80806 12.3169C3.69085 12.1997 3.625 12.0408 3.625 11.875C3.625 11.7092 3.69085 11.5503 3.80806 11.4331C3.92527 11.3158 4.08424 11.25 4.25 11.25ZM4.25 13.75H8C8.16576 13.75 8.32473 13.8158 8.44194 13.9331C8.55915 14.0503 8.625 14.2092 8.625 14.375C8.625 14.5408 8.55915 14.6997 8.44194 14.8169C8.32473 14.9342 8.16576 15 8 15H4.25C4.08424 15 3.92527 14.9342 3.80806 14.8169C3.69085 14.6997 3.625 14.5408 3.625 14.375C3.625 14.2092 3.69085 14.0503 3.80806 13.9331C3.92527 13.8158 4.08424 13.75 4.25 13.75Z" fill="#5C93E9"/>
</svg>
